<svg width="88" height="74" viewBox="0 0 88 74" fill="none" xmlns="http://www.w3.org/2000/svg">
<path d="M70.9574 47.2553C71.2852 47.7345 71.2423 48.3866 71.2521 48.9691C71.2523 51.6468 71.2522 58.3434 71.2521 60.9004C71.2642 62.3883 71.1939 63.6225 70.779 65.1449C69.7399 69.0228 66.5358 72.0206 62.6593 72.8203C61.1108 73.1861 59.5367 73.1214 57.6537 73.1331C56.0976 73.1147 54.4903 73.1847 52.9709 73.0602C48.7552 72.7436 45.7637 69.3163 45.5929 65.2341C45.5786 60.2102 45.5871 11.8939 45.5918 6.45083C45.6673 5.7437 46.379 5.58527 47.2225 5.75909C48.5193 6.06066 49.6504 6.9323 50.8308 7.56097C54.8821 9.7391 58.6388 13.1311 60.5914 17.2451C62.0727 20.2058 62.3181 23.5607 62.4131 26.8195C62.6183 32.5733 63.3872 40.9557 67.3768 45.0476C68.3313 45.9368 70.0764 46.2655 70.9408 47.2318L70.9574 47.2553Z" fill="white"/>
<path d="M82.9411 24.4576C81.0296 26.6871 78.9129 28.9564 77.301 31.4406C76.2902 32.9785 75.4063 34.6382 74.6192 36.3599C73.9097 37.8909 73.3196 39.4469 72.721 41.0335C71.9639 43.1305 70.8707 45.4644 69.075 42.4684C66.9317 38.7321 66.2838 34.1616 65.9516 29.7743C65.7941 27.4027 65.8255 25.131 65.5425 22.7874C65.0456 17.9465 62.641 13.7117 59.1772 10.3461C56.2952 7.46836 52.6908 5.80803 49.271 3.74549C47.4983 2.72992 46.5426 1.54994 49.0362 0.962082C55.4732 -0.544346 64.468 -0.111563 71.1482 1.09201C77.6173 2.45876 85.589 3.92438 87.5633 10.7446C88.86 15.6954 86.1247 20.7881 82.9727 24.4204L82.9411 24.4576Z" fill="white"/>
<path d="M16.9351 47.2553C16.6073 47.7345 16.6502 48.3866 16.6404 48.9691C16.6401 51.6468 16.6402 58.3434 16.6404 60.9004C16.6283 62.3883 16.6986 63.6225 17.1135 65.1449C18.1525 69.0228 21.3567 72.0206 25.2332 72.8203C26.7817 73.1861 28.3557 73.1214 30.2388 73.1331C31.7948 73.1147 33.4022 73.1847 34.9216 73.0602C39.1373 72.7436 42.1288 69.3163 42.2996 65.2341C42.3139 60.2102 42.3054 11.8939 42.3007 6.45083C42.2252 5.7437 41.5135 5.58527 40.67 5.75909C39.3732 6.06066 38.2421 6.9323 37.0617 7.56097C33.0104 9.7391 29.2537 13.1311 27.3011 17.2451C25.8198 20.2058 25.5744 23.5607 25.4793 26.8195C25.2742 32.5733 24.5053 40.9557 20.5157 45.0476C19.5612 45.9368 17.8161 46.2655 16.9517 47.2318L16.9351 47.2553Z" fill="white"/>
<path d="M4.95186 24.4576C6.86332 26.6871 8.98005 28.9564 10.5919 31.4406C11.6027 32.9785 12.4866 34.6382 13.2737 36.3599C13.9832 37.8909 14.5733 39.4469 15.1719 41.0335C15.929 43.1305 17.0222 45.4644 18.818 42.4684C20.9612 38.7321 21.6092 34.1616 21.9413 29.7743C22.0988 27.4027 22.0675 25.131 22.3504 22.7874C22.8473 17.9465 25.252 13.7117 28.7157 10.3461C31.5978 7.46836 35.2022 5.80803 38.6219 3.74549C40.3946 2.72992 41.3503 1.54994 38.8567 0.962082C32.4198 -0.544346 23.4249 -0.111563 16.7447 1.09201C10.2757 2.45871 2.30396 3.92428 0.329687 10.7445C-0.966962 15.6953 1.76831 20.7881 4.92027 24.4203L4.95186 24.4576Z" fill="white"/>
</svg>
