<svg width="64" height="89" viewBox="0 0 64 89" fill="none" xmlns="http://www.w3.org/2000/svg">
<g clip-path="url(#clip0_233_816)">
<path d="M48.2913 24.397C54.7479 42.2497 56.8859 51.7335 54.7024 52.8516C53.3003 53.5658 50.1265 50.8445 45.1811 44.6877C50.1931 59.4032 51.562 67.3742 49.2816 68.5917C47.8037 69.3843 44.7995 67.341 40.2629 62.4711C39.2666 71.313 38.2702 80.158 37.2769 88.9999C36.1503 80.4473 35.0268 71.8977 33.9002 63.345C32.1498 66.0121 27.3376 72.8892 23.9397 71.9459C20.5418 71.0026 19.2911 62.4349 20.5085 50.5703C16.2112 55.594 13.3069 57.7427 11.7957 57.0164C8.93994 55.6452 11.0598 44.0127 18.1494 22.1097L0 36.2285C0 36.2285 1.19926 26.9857 2.32583 18.2824C2.80736 14.5425 3.27675 10.9051 3.62804 8.1416C6.47181 10.3778 18.0919 18.9836 34.7002 17.9057C47.7278 17.0601 56.6154 10.7241 59.872 8.1416C60.2659 11.2197 60.7758 15.2048 61.1742 18.2824C62.3007 26.9857 63.5 36.2285 63.5 36.2285L48.2913 24.397Z" fill="white"/>
<path d="M31.7548 13.2871C31.6356 13.2871 31.5173 13.2868 31.3976 13.2858C16.317 13.1595 6.26264 5.0457 2.63965 1.56296L4.15697 0C7.59125 3.30155 17.1223 10.9931 31.4157 11.1127C31.5253 11.1137 31.6343 11.114 31.7431 11.114C46.6176 11.114 56.6173 2.61954 59.3425 0L60.8598 1.56296C57.1771 5.10299 47.006 13.2871 31.7548 13.2871Z" fill="white"/>
</g>
<defs>
<clipPath id="clip0_233_816">
<rect width="63.5" height="89" fill="white"/>
</clipPath>
</defs>
</svg>
